# xmcd
#
# Track frame offsets:
#	150
#	13502
#	32560
#	45067
#	65770
#	81230
#
# Disc length: 1284 seconds
#
# Revision: 1
# Processed by: cddbd v1.5.2PL0 Copyright (c) Steve Scherf et al.
# Submitted via: audiograbber 1.83.01
#
DISCID=3d050206
DTITLE=Southern Communications - AOH-69
DYEAR=1900
DGENRE=Gospel
TTITLE0=Del Way - The Light's Shining Bright
TTITLE1=David Patillo - In My Own Way
TTITLE2=The Murrrells - If Your Heart Isn't True
TTITLE3=Ronnie Cochran - I've Become Acquainted
TTITLE4=Sisters - When Mama Sang
TTITLE5=Leroy Dewey - Moe To Go To Heaven For
EXTD=
EXTT0=
EXTT1=
EXTT2=
EXTT3=
EXTT4=
EXTT5=
PLAYORDER=
